# xmcd
#
# Track frame offsets:
#	150
#	11977
#	21157
#	33720
#	44177
#	54645
#	73730
#	87307
#	101575
#	111355
#	122677
#	133397
#	139965
#	152735
#	163917
#	179487
#	189010
#	201045
#	212152
#	221807
#	239720
#
# Disc length: 3365 seconds
#
# Revision: 3
# Processed by: cddbd v1.5.2PL0 Copyright (c) Steve Scherf et al.
# Submitted via: audiograbber 1.83.01
#
DISCID=520d2315
DTITLE=Eric Clapton - The Blues Years
DYEAR=1994
DGENRE=Blues
TTITLE0=Eric Clapton with The Yardbirds - Got to hurry
TTITLE1=Eric Clapton with The Yardbirds - I aint got you
TTITLE2=Eric Clapton with The Yardbirds - Good Morning Little Schoolgirl
TTITLE3=Eric Clapton with The Yardbirds - Let It Rock
TTITLE4=Eric Clapton with The Yardbirds - A Certain Girl
TTITLE5=Eric Clapton with The Yardbirds - Take it Easy Baby
TTITLE6=Eric Clapton with The Yardbirds - Too Much Monkey Business
TTITLE7=Eric Clapton with The Immediate All-Stars - Draggin' My Tail
TTITLE8=Eric Clapton with The Immediate All-Stars - Tribute to Elmore
TTITLE9=Eric Clapton with The Immediate All-Stars - Snake Drive
TTITLE10=Eric Clapton with The Immediate All-Stars - West Coast Idea
TTITLE11=Eric Clapton with The Immediate All-Stars - Choker
TTITLE12=Eric Clapton with The Immediate All-Stars - Freight Loader
TTITLE13=Eric Clapton with The Immediate All-Stars - Miles Road
TTITLE14=Jimmy Page with The Immediate All-Stars - Down in the Boots
TTITLE15=Jimmy Page with The Immediate All-Stars - L.A. Breakdown
TTITLE16=Jeff Beck with The Immediate All-Stars - Steelin'
TTITLE17=Jeff Beck with The Immediate All-Stars - Chuckles
TTITLE18=Eric Clapton with John Mayall's Bluesbreakers - I'm Your Witch Doctor
TTITLE19=Eric Clapton with John Mayall's Bluesbreakers - Telelphone Blues
TTITLE20=Eric Clapton with John Mayall's Bluesbreakers - On Top of the World
EXTD=Clapton and Friends
EXTT0=Clapton with The Yardbirds\n
EXTT1=Eric Clapton with The Yardbirds\n
EXTT2=Eric Clapton with The Yardbirds\n
EXTT3=Eric Clapton with The Yardbirds\n
EXTT4=Eric Clapton with The Yardbirds\n
EXTT5=Eric Clapton with The Yardbirds\n
EXTT6=Eric Clapton with The Yardbirds\n
EXTT7=Eric Clapton with The Immediate All-Stars\n
EXTT8=Eric Clapton with The Immediate All-Stars\n
EXTT9=Eric Clapton with The Immediate All-Stars\n
EXTT10=Eric Clapton with The Immediate All-Stars\n
EXTT11=Eric Clapton with The Immediate All-Stars\n
EXTT12=Eric Clapton with The Immediate All-Stars\n
EXTT13=Eric Clapton with The Immediate All-Stars\n
EXTT14=Jimmy Page with The Immediate All-Stars\n
EXTT15=Jimmy Page with The Immediate All-Stars\n
EXTT16=Jeff Beck with The Immediate All-Stars\n
EXTT17=Jeff Beck with The Immediate All-Stars\n
EXTT18=Eric Clapton With John Mayall's \nBluesbreakers\n
EXTT19=Eric Clapton With John Mayall's \nBluesbreakers\n
EXTT20=Eric Clapton With John Mayall's \nBluesbreakers\n
PLAYORDER=
